HIERARCHY
ROOT Hips
{
	OFFSET 0.000000 0.000000 0.000000
	CHANNELS 6 Xposition Yposition Zposition Yrotation Xrotation Zrotation
	JOINT Chest
	{
		OFFSET 0.000000 -0.009281 11.569106
		CHANNELS 3 Yrotation Xrotation Zrotation
		JOINT Chest2
		{
			OFFSET -0.000000 0.016865 9.269641
			CHANNELS 3 Yrotation Xrotation Zrotation
			JOINT Chest3
			{
				OFFSET -0.000000 0.000001 8.374491
				CHANNELS 3 Yrotation Xrotation Zrotation
				JOINT Chest4
				{
					OFFSET -0.000000 0.000001 8.374493
					CHANNELS 3 Yrotation Xrotation Zrotation
					JOINT Neck
					{
						OFFSET -0.000000 0.000002 12.152554
						CHANNELS 3 Yrotation Xrotation Zrotation
						JOINT Head
						{
							OFFSET -0.000000 0.040101 7.802319
							CHANNELS 3 Yrotation Xrotation Zrotation
							End Site
							{
								OFFSET -0.000000 0.020947 14.853096
							}
						}
					}
					JOINT RightCollar
					{
						OFFSET 2.894404 0.000001 6.791374
						CHANNELS 3 Yrotation Xrotation Zrotation
						JOINT RightShoulder
						{
							OFFSET 13.574684 0.000001 0.000000
							CHANNELS 3 Yrotation Xrotation Zrotation
							JOINT RightElbow
							{
								OFFSET 23.923903 0.000002 0.000000
								CHANNELS 3 Yrotation Xrotation Zrotation
								JOINT RightWrist
								{
									OFFSET 19.846718 0.012767 0.000000
									CHANNELS 3 Yrotation Xrotation Zrotation
									End Site
									{
										OFFSET 14.973145 0.000001 0.000000
									}
								}
							}
						}
					}
					JOINT LeftCollar
					{
						OFFSET -2.894404 0.000001 6.791374
						CHANNELS 3 Yrotation Xrotation Zrotation
						JOINT LeftShoulder
						{
							OFFSET -13.574684 -0.000001 0.000000
							CHANNELS 3 Yrotation Xrotation Zrotation
							JOINT LeftElbow
							{
								OFFSET -23.923903 -0.000002 0.000000
								CHANNELS 3 Yrotation Xrotation Zrotation
								JOINT LeftWrist
								{
									OFFSET -19.846718 0.012763 0.000000
									CHANNELS 3 Yrotation Xrotation Zrotation
									End Site
									{
										OFFSET -14.973145 -0.000001 0.000000
									}
								}
							}
						}
					}
				}
			}
		}
	}
	JOINT RightHip
	{
		OFFSET 9.469263 0.004643 0.045487
		CHANNELS 3 Yrotation Xrotation Zrotation
		JOINT RightKnee
		{
			OFFSET 0.000000 0.002661 -40.478676
			CHANNELS 3 Yrotation Xrotation Zrotation
			JOINT RightAnkle
			{
				OFFSET 0.000000 0.049106 -35.224068
				CHANNELS 3 Yrotation Xrotation Zrotation
				JOINT RightToe
				{
					OFFSET -0.000001 12.539529 -6.151390
					CHANNELS 3 Yrotation Xrotation Zrotation
					End Site
					{
						OFFSET -0.000001 5.044994 -1.291870
					}
				}
			}
		}
	}
	JOINT LeftHip
	{
		OFFSET -9.469263 0.004641 0.045487
		CHANNELS 3 Yrotation Xrotation Zrotation
		JOINT LeftKnee
		{
			OFFSET 0.000000 0.002661 -40.478676
			CHANNELS 3 Yrotation Xrotation Zrotation
			JOINT LeftAnkle
			{
				OFFSET 0.000000 0.049106 -35.224068
				CHANNELS 3 Yrotation Xrotation Zrotation
				JOINT LeftToe
				{
					OFFSET -0.000001 12.539529 -6.151390
					CHANNELS 3 Yrotation Xrotation Zrotation
					End Site
					{
						OFFSET -0.000001 5.044994 -1.291870
					}
				}
			}
		}
	}
}
MOTION
Frames: 8
Frame Time: 0.016667
21.112659 11.418917 83.029037 -7.353135 -2.969680 -113.397512 -1.215081 -5.127239 6.011586 -0.462673 -2.293175 2.587149 -0.462673 -2.293175 2.587151 -0.337253 -1.721877 1.938366 5.270678 -17.392920 -8.084052 6.961019 3.984860 -13.118591 9.626310 5.454992 -16.714446 80.298470 0.822884 7.965775 -3.115587 -25.178222 -0.139952 -40.932173 19.022659 27.239585 -7.786880 -3.715081 -16.716456 -78.250677 4.945738 -8.671799 4.487551 -0.747074 1.705970 18.649620 -7.332880 -27.979288 -1.465327 -9.123651 -2.285522 1.267325 -6.544750 -1.323961 -0.197630 7.603572 0.107289 -0.059726 0.032285 -0.014127 -0.316652 -9.385431 -1.392088 -0.809428 -2.046508 -3.751937 0.927450 3.265940 2.248445 -0.010893 -0.081311 0.016768 
21.134947 11.370278 83.027817 -7.259431 -2.942608 -113.345159 -1.223814 -5.099594 6.016080 -0.465409 -2.281391 2.590376 -0.465409 -2.281391 2.590377 -0.339343 -1.713054 1.940789 5.289221 -17.327007 -8.115256 6.980333 4.107575 -13.170138 9.630095 5.486333 -16.715051 80.325907 0.848099 7.897346 -3.151219 -25.092846 -0.290211 -40.858526 19.012675 27.190112 -7.789882 -3.668813 -16.701018 -78.291474 5.064939 -8.564550 4.452493 -0.816716 1.674508 18.640196 -7.343006 -27.966753 -1.410239 -9.149394 -2.300217 1.258675 -6.359403 -1.414715 -0.174143 7.546416 0.152915 -0.075453 0.035737 -0.012999 -0.259826 -9.342330 -1.393839 -0.821971 -1.989597 -3.833151 0.914829 3.271191 2.279250 -0.010885 -0.087899 0.016771 
21.156189 11.321113 83.025925 -7.171791 -2.917730 -113.291426 -1.228866 -5.071884 6.013643 -0.466110 -2.269677 2.590725 -0.466109 -2.269677 2.590729 -0.339918 -1.704270 1.941062 5.307775 -17.264307 -8.144742 7.000429 4.224379 -13.218510 9.629269 5.521541 -16.706632 80.343631 0.875993 7.830944 -3.162655 -24.960119 -0.434603 -40.768177 19.003743 27.121276 -7.797880 -3.638334 -16.690645 -78.326192 5.168357 -8.462709 4.426440 -0.870036 1.639635 18.622280 -7.348442 -27.947669 -1.354743 -9.171888 -2.318550 1.249177 -6.193283 -1.498374 -0.152470 7.500191 0.192412 -0.087400 0.037028 -0.012024 -0.204666 -9.303002 -1.399778 -0.831664 -1.936546 -3.908681 0.900290 3.279883 2.303370 -0.010813 -0.095756 0.016169 
21.176985 11.274771 83.024040 -7.091901 -2.893487 -113.240650 -1.232884 -5.047896 6.003597 -0.466935 -2.259586 2.587764 -0.466935 -2.259586 2.587766 -0.340591 -1.696703 1.938846 5.321120 -17.201387 -8.167306 7.013251 4.341354 -13.255936 9.625923 5.531354 -16.683753 80.364218 0.912205 7.795674 -3.163544 -24.775239 -0.549760 -40.638823 18.970680 27.034159 -7.820544 -3.583387 -16.656600 -78.338978 5.249845 -8.359350 4.405006 -0.943677 1.627148 18.612979 -7.365650 -27.920927 -1.306581 -9.191822 -2.340512 1.242105 -6.045810 -1.567390 -0.131234 7.461359 0.228781 -0.096880 0.038427 -0.011896 -0.157237 -9.266233 -1.406425 -0.834761 -1.892504 -3.968570 0.885708 3.291598 2.305939 -0.013051 -0.101394 0.015061 
21.196177 11.232248 83.022247 -7.016404 -2.868662 -113.197647 -1.244868 -5.024766 6.002855 -0.471957 -2.249919 2.588789 -0.471957 -2.249919 2.588789 -0.344394 -1.689475 1.939605 5.340200 -17.142482 -8.192195 7.036096 4.451231 -13.295638 9.637553 5.570720 -16.682976 80.367530 0.939837 7.744230 -3.150611 -24.557433 -0.636037 -40.457830 18.908865 26.931530 -7.812159 -3.551964 -16.640608 -78.339620 5.307059 -8.298162 4.393494 -1.002303 1.642638 18.608818 -7.399351 -27.897161 -1.267326 -9.200001 -2.351133 1.241778 -5.924691 -1.619540 -0.116335 7.434695 0.244596 -0.102805 0.037932 -0.011581 -0.118703 -9.230852 -1.406931 -0.830592 -1.850393 -4.008084 0.868864 3.300145 2.275432 -0.015901 -0.103746 0.014127 
21.212688 11.193905 83.020378 -6.950292 -2.841328 -113.166911 -1.262428 -5.007353 6.009235 -0.480427 -2.242980 2.592426 -0.480427 -2.242981 2.592425 -0.350763 -1.684310 1.942307 5.366102 -17.089263 -8.217998 7.071569 4.550991 -13.334636 9.644943 5.578841 -16.704216 80.382666 0.967093 7.738812 -3.121712 -24.337281 -0.696023 -40.229223 18.842661 26.820565 -7.792994 -3.528738 -16.644063 -78.333500 5.332948 -8.258757 4.409409 -1.022638 1.670988 18.589074 -7.449660 -27.863431 -1.242082 -9.194829 -2.363047 1.246648 -5.837997 -1.640857 -0.106403 7.422247 0.243962 -0.106387 0.036042 -0.011037 -0.094100 -9.198150 -1.395020 -0.821509 -1.814221 -4.042560 0.851917 3.307934 2.251187 -0.017889 -0.104204 0.013281 
21.226448 11.157552 83.018456 -6.890361 -2.820501 -113.156072 -1.279221 -4.986902 6.020036 -0.488348 -2.234649 2.597268 -0.488349 -2.234649 2.597269 -0.356722 -1.678098 1.945919 5.393021 -17.052261 -8.243506 7.110066 4.620776 -13.372622 9.648073 5.583928 -16.723293 80.396415 0.983639 7.726103 -3.096440 -24.106579 -0.727191 -39.899861 18.804899 26.748838 -7.771202 -3.535893 -16.648381 -78.323883 5.351794 -8.237264 4.442804 -1.015782 1.700280 18.568808 -7.508637 -27.827123 -1.221036 -9.176911 -2.363955 1.259273 -5.785441 -1.647458 -0.104379 7.419945 0.235349 -0.107299 0.036815 -0.009895 -0.071667 -9.174644 -1.355141 -0.810566 -1.775499 -4.078822 0.833964 3.315316 2.245490 -0.018458 -0.105688 0.012954 
21.238708 11.120516 83.016068 -6.831754 -2.800494 -113.162117 -1.296364 -4.961208 6.031609 -0.496650 -2.223285 2.602621 -0.496650 -2.223286 2.602619 -0.362977 -1.669617 1.949914 5.416128 -17.033278 -8.267732 7.143135 4.657003 -13.409460 9.652726 5.585714 -16.726751 80.403833 0.982217 7.712171 -3.061395 -23.845092 -0.744611 -39.480211 18.763312 26.706975 -7.757434 -3.533370 -16.648593 -78.287874 5.356738 -8.202051 4.477012 -0.994254 1.743636 18.542044 -7.529197 -27.777172 -1.202062 -9.142487 -2.372126 1.269553 -5.764862 -1.634689 -0.106941 7.431045 0.233283 -0.104554 0.037317 -0.009501 -0.045566 -9.158115 -1.294220 -0.805681 -1.729246 -4.113311 0.814181 3.321898 2.219057 -0.017688 -0.107997 0.013307 
